# xmcd
#
# Track frame offsets:
#	150
#	18084
#	36517
#	53538
#	82556
#	96942
#	109491
#	126658
#	136869
#	149649
#	163593
#	180811
#	190454
#	207208
#	227933
#	243639
#	273876
#	298016
#	314707
#	330507
#
# Disc length: 4730 seconds
#
# Revision: 1
# Processed by: cddbd v1.5.2PL0 Copyright (c) Steve Scherf et al.
# Submitted via: audiograbber 1.83.01
#
DISCID=26127814
DTITLE=100 Rock Hits - 100 Rock Hits [CD2)
DYEAR=2008
DGENRE=Rock
TTITLE0=Ian Gillan Band-Woman From Tokyo
TTITLE1=Blood Sweat and Tears-Spinning Wheel
TTITLE2=The Animals-Don´t Let Me Be Misunderstood
TTITLE3=Kansas-Carry On Wayward Son (Live)
TTITLE4=Greatful Dead-Not Fade Away
TTITLE5=Blackfood Sue-Sing,Don´t Speak
TTITLE6=Wishbone Ash-Keeper Of The Light (Live)
TTITLE7=Eric Clapton-I Wish You Would
TTITLE8=Steely Dan-More To Come
TTITLE9=Dr John-She´s Just A Squere
TTITLE10=Renaissance-America-(Live)
TTITLE11=Jefferson Aitplane-White Rabbit
TTITLE12=Tony Joe White-Polk Salad Annie
TTITLE13=Chris Farlowe-Rock And Roll Soldier
TTITLE14=Blackfood-Rattlesnake Rock Roller (Live)
TTITLE15=Vanilla Fudge-You Keep Me Hanging On (Live)
TTITLE16=Rick Wakerman-Sir Lancelot And The Blackm Night (Live)
TTITLE17=Peter Frampton and Hewvy Metals Boys-Grits And Cornbread
TTITLE18=Mark Knopfler and Dave Edmunds-Roller Coster
TTITLE19=Foreigner-Hot Blooded (Live)
EXTD=
EXTT0=
EXTT1=
EXTT2=
EXTT3=
EXTT4=
EXTT5=
EXTT6=
EXTT7=
EXTT8=
EXTT9=
EXTT10=
EXTT11=
EXTT12=
EXTT13=
EXTT14=
EXTT15=
EXTT16=
EXTT17=
EXTT18=
EXTT19=
PLAYORDER=
